<?xml version="1.0" standalone="no"?>
<!DOCTYPE svg PUBLIC "-//W3C//DTD SVG 20010904//EN"
 "http://www.w3.org/TR/2001/REC-SVG-20010904/DTD/svg10.dtd">
<svg version="1.0" xmlns="http://www.w3.org/2000/svg"
 width="1024.000000pt" height="1024.000000pt" viewBox="0 0 1024.000000 1024.000000"
 preserveAspectRatio="xMidYMid meet">
<metadata>
Created by potrace 1.14, written by Peter Selinger 2001-2017
</metadata>
<g transform="translate(0.000000,1024.000000) scale(0.100000,-0.100000)"
fill="#000000" stroke="none">
<path d="M7035 7234 c-11 -1 -69 -8 -130 -14 -398 -42 -788 -192 -1088 -418
-367 -277 -627 -684 -736 -1154 -72 -307 -72 -749 0 -1056 88 -381 270 -713
534 -977 320 -320 740 -519 1245 -591 149 -21 522 -30 662 -15 131 14 295 45
388 73 175 54 433 189 593 312 16 12 17 50 17 541 l0 527 -68 -63 c-194 -183
-405 -313 -629 -389 -286 -95 -632 -103 -915 -20 -121 36 -303 130 -398 207
-140 113 -264 278 -329 440 -126 309 -116 724 23 1019 161 340 476 566 886
635 108 19 393 16 515 -5 313 -52 589 -198 853 -449 l62 -60 0 528 c0 491 -1
529 -17 541 -58 44 -190 129 -268 171 -303 164 -571 224 -985 222 -107 -1
-204 -3 -215 -5z"/>
<path d="M1720 5121 l0 -2031 490 0 490 0 0 705 0 705 148 0 147 0 437 -702
436 -703 571 -3 c314 -1 571 0 571 3 0 5 -892 1299 -1007 1462 l-44 62 103 50
c147 71 249 142 354 246 237 235 354 533 354 903 0 309 -73 553 -231 776 -179
251 -482 434 -837 506 -211 42 -232 43 -1119 47 l-863 4 0 -2030z m1640 1176
c273 -81 412 -271 397 -542 -8 -154 -52 -252 -154 -347 -60 -55 -124 -89 -225
-119 -66 -20 -101 -23 -375 -26 l-303 -5 0 532 0 532 303 -5 c239 -3 313 -7
357 -20z"/>
</g>
</svg>
